Coordinates
version=1
nRows=12
nColumns=24
inDegrees=yes

Units are S.I. units (second, meters, Newtons, ...)
Angles are in degrees.

endheader
time	pelvis_tilt	pelvis_list	pelvis_rotation	pelvis_tx	pelvis_ty	pelvis_tz	hip_flexion_r	hip_adduction_r	hip_rotation_r	knee_angle_r	ankle_angle_r	subtalar_angle_r	mtp_angle_r	hip_flexion_l	hip_adduction_l	hip_rotation_l	knee_angle_l	ankle_angle_l	subtalar_angle_l	mtp_angle_l	lumbar_extension	lumbar_bending	lumbar_rotation
      4.04000000	    -10.79785534	     -1.56242026	     -3.22716210	     -1.25547441	     -0.00611422	     -0.73245544	      5.02213561	      5.95573663	     -3.11783512	     -7.27513453	      5.61356696	     -8.42031744	      4.44669146	     36.95182568	     -6.56988491	    -14.79071821	    -48.07461357	     -2.18667177	    -14.95954301	     -0.02421188	      7.54483115	      4.43049529	      1.18093993
      4.04500000	    -10.81994159	     -1.53000342	     -3.38096613	     -1.25004943	     -0.00664529	     -0.73228780	      4.61254647	      5.90455468	     -3.28345193	     -7.12618403	      5.85743236	     -7.97052617	      5.00017987	     37.06452083	     -6.55318743	    -15.16001846	    -46.33675880	     -1.70464943	    -14.57284481	     -0.86135892	      7.49767230	      4.38193362	      1.43066888
      4.05000000	    -11.05349781	     -1.54882496	     -3.47576741	     -1.24467070	     -0.00747170	     -0.73219606	      4.41749269	      5.92993374	     -3.21634913	     -6.96940889	      6.04300644	     -7.86975131	      5.09171214	     37.40901334	     -6.52758325	    -15.33128850	    -44.53157877	     -1.46583273	    -14.22246481	     -0.92731418	      7.67705404	      4.38420345	      1.58566412
      4.05500000	    -11.20195490	     -1.56502196	     -3.67041753	     -1.23926799	     -0.00822823	     -0.73196810	      4.15166863	      5.95281047	     -3.19595866	     -6.85249580	      6.27337221	     -7.57890689	      5.29460326	     37.59142942	     -6.59083272	    -15.70986882	    -42.66222730	     -1.11434214	    -13.69840470	     -1.04365977	      7.75727239	      4.39729755	      1.88466518
      4.06000000	    -11.34179971	     -1.57400682	     -3.78187213	     -1.23382131	     -0.00898915	     -0.73187022	      3.86590648	      5.95547454	     -3.25101895	     -6.71831497	      6.48154866	     -7.31870101	      5.50999568	     37.73179171	     -6.57380506	    -16.01183028	    -40.70932502	     -0.80540346	    -13.09600875	     -1.11848835	      7.83733236	      4.38607268	      2.06203964
      4.06500000	    -11.54066981	     -1.59071810	     -3.82269075	     -1.22837129	     -0.00984558	     -0.73188555	      3.64416485	      5.96659580	     -3.31311944	     -6.58856597	      6.66101777	     -7.19298303	      5.62847072	     37.91446263	     -6.49701139	    -16.21668369	    -38.68801579	     -0.59152742	    -12.47822767	     -1.10404002	      7.98279264	      4.37088313	      2.13670871
      4.07000000	    -11.63422889	     -1.61871594	     -3.97916537	     -1.22287165	     -0.01060448	     -0.73174214	      3.31353726	      5.98540100	     -3.40126928	     -6.47249416	      6.87698766	     -6.81085240	      5.88314558	     37.91061417	     -6.53305059	    -16.64549204	    -36.62831609	     -0.23941316	    -11.59436441	     -0.93191441	      8.01092828	      4.38424335	      2.37841992
      4.07500000	    -11.66322957	     -1.60258211	     -4.03286393	     -1.21732502	     -0.01129499	     -0.73180793	      2.91276791	      5.92707787	     -3.63945795	     -6.34156606	      7.07753549	     -6.39723362	      6.50661425	     37.79033907	     -6.40904341	    -16.93879378	    -34.44747350	     -0.12596224	    -10.81340508	     -0.36814587	      7.97628573	      4.33221340	      2.51271947
      4.08000000	    -11.84732253	     -1.66422632	     -4.13102349	     -1.21180602	     -0.01222721	     -0.73176557	      2.69229340	      5.98691361	     -3.74240624	     -6.25731016	      7.24235954	     -6.18181921	      6.68484864	     37.85177364	     -6.42588038	    -17.30980672	    -32.34716832	      0.16499235	     -9.75140497	      0.05564612	      8.10253852	      4.37070273	      2.67885091
      4.08500000	    -11.85489971	     -1.64903602	     -4.19406297	     -1.20614335	     -0.01294922	     -0.73182366	      2.25446054	      5.92617559	     -3.90183638	     -6.12609231	      7.44354951	     -5.78605129	      7.15397046	     37.63924875	     -6.30814984	    -17.69906846	    -30.09535981	      0.08834633	     -8.89177008	      1.42086957	      8.05974899	      4.31527472	      2.78513185
      4.09000000	    -12.02582494	     -1.72840074	     -4.26954672	     -1.20053275	     -0.01391736	     -0.73181990	      2.02054579	      5.99919554	     -4.02994214	     -6.06210851	      7.59747831	     -5.56053058	      7.24820744	     37.65636907	     -6.31779918	    -18.08638533	    -28.01949065	      0.37209857	     -7.65267704	      1.97416768	      8.18159082	      4.36028977	      2.91174453
      4.09500000	    -11.96760564	     -1.67596383	     -4.31996450	     -1.19479122	     -0.01455515	     -0.73193563	      1.52863626	      5.88408646	     -4.21481862	     -5.97215288	      7.79021123	     -5.14704940	      7.58052957	     37.31598295	     -6.13257635	    -18.53235846	    -25.72080640	      0.03433653	     -6.84448245	      4.08313946	      8.07279269	      4.26102603	      3.02937086
